<?xml version="1.0" encoding="utf-8"?>
<!-- Generator: Adobe Illustrator 18.1.1, SVG Export Plug-In . SVG Version: 6.00 Build 0)  -->
<svg version="1.1" id="Layer_1" xmlns="http://www.w3.org/2000/svg" xmlns:xlink="http://www.w3.org/1999/xlink" x="0px" y="0px"
	 viewBox="-153 154.5 92.5 92.5" enable-background="new -153 154.5 92.5 92.5" xml:space="preserve">
<circle fill="#FF0000" stroke="#FF0000" stroke-miterlimit="10" cx="-106.8" cy="200.8" r="46.2"/>
<circle fill="#FF0000" stroke="#FFFFFF" cx="-106.8" cy="200.8" r="44.3"/>
<g>
	<path fill="#FFFFFF" d="M-88.3,176.5v-5.3c0-1.4-1.1-2.6-2.6-2.6h-0.6c-1.4,0-2.6,1.1-2.6,2.6v2.8H-125c-1.5,0-2.7,1.2-2.7,2.7v49
		c0,1.5,1.2,2.7,2.7,2.7h34c1.5,0,2.7-1.2,2.7-2.7v-49C-88.3,176.7-88.3,176.6-88.3,176.5z M-118,223.6h-3.5c-1.1,0-2-0.9-2-2
		c0-1.1,0.9-2,2-2h3.5c1.1,0,2,0.9,2,2C-115.9,222.7-116.8,223.6-118,223.6z M-118,216.6h-3.5c-1.1,0-2-0.9-2-2s0.9-2,2-2h3.5
		c1.1,0,2,0.9,2,2S-116.8,216.6-118,216.6z M-118,210h-3.5c-1.1,0-2-0.9-2-2c0-1.1,0.9-2,2-2h3.5c1.1,0,2,0.9,2,2
		C-115.9,209.1-116.8,210-118,210z M-106.6,223.6h-3.5c-1.1,0-2-0.9-2-2c0-1.1,0.9-2,2-2h3.5c1.1,0,2,0.9,2,2
		C-104.6,222.7-105.5,223.6-106.6,223.6z M-106.6,216.6h-3.5c-1.1,0-2-0.9-2-2s0.9-2,2-2h3.5c1.1,0,2,0.9,2,2
		S-105.5,216.6-106.6,216.6z M-106.6,210h-3.5c-1.1,0-2-0.9-2-2c0-1.1,0.9-2,2-2h3.5c1.1,0,2,0.9,2,2
		C-104.6,209.1-105.5,210-106.6,210z M-95.4,223.6h-3.5c-1.1,0-2-0.9-2-2c0-1.1,0.9-2,2-2h3.5c1.1,0,2,0.9,2,2
		C-93.3,222.7-94.3,223.6-95.4,223.6z M-95.4,216.6h-3.5c-1.1,0-2-0.9-2-2s0.9-2,2-2h3.5c1.1,0,2,0.9,2,2S-94.3,216.6-95.4,216.6z
		 M-95.4,210h-3.5c-1.1,0-2-0.9-2-2c0-1.1,0.9-2,2-2h3.5c1.1,0,2,0.9,2,2C-93.3,209.1-94.3,210-95.4,210z M-92.6,198.6
		c0,1.4-1.1,2.5-2.4,2.5h-26.1c-1.3,0-2.4-1.1-2.4-2.5v-17.9c0-1.4,1.1-2.5,2.4-2.5H-95c1.3,0,2.4,1.1,2.4,2.5
		C-92.6,180.8-92.6,198.6-92.6,198.6z"/>
</g>
</svg>
