<?xml version="1.0" encoding="utf-8"?>
<!-- Generator: Adobe Illustrator 18.1.1, SVG Export Plug-In . SVG Version: 6.00 Build 0)  -->
<svg version="1.1" id="Layer_1" xmlns:sketch="http://www.bohemiancoding.com/sketch/ns"
	 xmlns="http://www.w3.org/2000/svg" xmlns:xlink="http://www.w3.org/1999/xlink" x="0px" y="0px" viewBox="-169 171 60 60"
	 enable-background="new -169 171 60 60" xml:space="preserve">
<title></title>
<g id="flat">
	<g id="trip_advisor">
		<path fill="#479951" d="M-139,231c16.6,0,30-13.4,30-30s-13.4-30-30-30s-30,13.4-30,30S-155.6,231-139,231z"/>
		<path fill="#FFFFFF" d="M-119.5,196c0.4-1.2,1-2.7,1.9-3.5h-7.1c-0.1,0-0.2-0.1-0.4-0.1c-0.4-0.6-3-4-13.5-4
			c-11.6,0-13.6,4.1-13.6,4.1h-7.4c0.9,0.9,1.6,2.6,2,3.9c-1.4,1.8-2.2,4.1-2.2,6.5c0,6,4.8,10.9,10.8,10.9c3.3,0,6.2-1.5,8.2-3.9
			l2.4,3.5l2.1-3.6c2,2.4,5,4,8.3,4c5.9,0,10.8-4.9,10.8-10.9C-117.1,200.2-118,197.8-119.5,196z M-148.8,211.4
			c-4.8,0-8.7-3.9-8.7-8.7s3.9-8.7,8.7-8.7c4.8,0,8.7,3.9,8.7,8.7S-144,211.4-148.8,211.4z M-152.5,199.1c-1,1-1.5,2.3-1.5,3.7
			s0.5,2.7,1.5,3.7c1,1,2.3,1.5,3.7,1.5c2.9,0,5.2-2.3,5.2-5.2c0-2.9-2.3-5.2-5.2-5.2C-150.2,197.5-151.5,198.1-152.5,199.1z
			 M-151.7,205.6c-0.8-0.8-1.2-1.8-1.2-2.9c0-1.1,0.4-2.1,1.2-2.9c0.8-0.8,1.8-1.2,2.9-1.2c2.2,0,4,1.8,4,4s-1.8,4-4,4
			C-149.9,206.8-150.9,206.3-151.7,205.6C-151.7,205.6-150.9,206.3-151.7,205.6z M-150.5,202.7c0,1,0.8,1.7,1.7,1.7s1.7-0.8,1.7-1.7
			s-0.8-1.7-1.7-1.7S-150.5,201.8-150.5,202.7z M-128,211.4c-4.8,0-8.7-3.9-8.7-8.7s3.9-8.7,8.7-8.7c4.8,0,8.7,3.9,8.7,8.7
			S-123.3,211.4-128,211.4z M-131.7,199.1c-1,1-1.5,2.3-1.5,3.7s0.5,2.7,1.5,3.7c1,1,2.3,1.5,3.7,1.5c2.9,0,5.2-2.3,5.2-5.2
			c0-2.9-2.3-5.2-5.2-5.2C-129.4,197.5-130.7,198.1-131.7,199.1z M-130.9,205.6c-0.8-0.8-1.2-1.8-1.2-2.9c0-1.1,0.4-2.1,1.2-2.9
			c0.8-0.8,1.8-1.2,2.9-1.2c2.2,0,4,1.8,4,4s-1.8,4-4,4C-129.1,206.8-130.1,206.3-130.9,205.6C-130.9,205.6-130.1,206.3-130.9,205.6
			z M-129.8,202.7c0,1,0.8,1.7,1.7,1.7c1,0,1.7-0.8,1.7-1.7s-0.8-1.7-1.7-1.7C-129,201-129.8,201.8-129.8,202.7z M-138.6,189.5
			c7.3,0,10,3.1,10,3.1s-7.8-1.3-10.4,8.5c-2.6-9.8-10.4-8.5-10.4-8.5s2.7-3.1,10-3.1H-138.6z"/>
	</g>
</g>
</svg>
