<?xml version="1.0" encoding="utf-8"?>
<!-- Generator: Adobe Illustrator 18.1.1, SVG Export Plug-In . SVG Version: 6.00 Build 0)  -->
<svg version="1.1" id="Layer_1" xmlns="http://www.w3.org/2000/svg" xmlns:xlink="http://www.w3.org/1999/xlink" x="0px" y="0px"
	 viewBox="0 0 400 400" enable-background="new 0 0 400 400" xml:space="preserve">
<path fill="#FF0000" stroke="#FF0000" stroke-miterlimit="10" d="M208.1,18.6c-95.9,0-173.5,77.6-173.5,173.5
	s77.6,173.5,173.5,173.5S381.7,288,381.7,192.1C382.4,96.2,304.1,18.6,208.1,18.6z M296.3,156.8c0,2.1,0,3.5,0,5.6
	c0,57.8-43.7,124.9-124.9,124.9c-24.7,0-48-7.1-67-19.8c3.5,0.7,7.1,0.7,10.6,0.7c20.5,0,39.5-7.1,54.3-19
	c-19-0.7-35.3-12.7-40.9-30.3c2.8,0.7,5.6,0.7,8.5,0.7c4.2,0,7.8-0.7,11.3-1.4c-19.8-4.2-35.3-21.9-35.3-43v-0.7
	c5.6,3.5,12.7,4.9,19.8,5.6c-12-7.8-19.8-21.2-19.8-36.7c0-7.8,2.1-15.5,5.6-21.9c21.9,26.8,53.6,43.7,90.3,45.9
	c-0.7-3.5-1.4-6.3-1.4-9.9c0-24,19.8-43.7,43.7-43.7c12.7,0,24,5.6,31.7,14.1c9.9-2.1,19-5.6,27.5-10.6c-3.5,10.6-9.9,19-19,24
	c9.2-1.4,17.6-3.5,25.4-7.1C311.8,143.4,304.8,150.5,296.3,156.8z"/>
</svg>
