<?xml version="1.0" encoding="utf-8"?>
<!-- Generator: Adobe Illustrator 18.1.1, SVG Export Plug-In . SVG Version: 6.00 Build 0)  -->
<svg version="1.1"
	 id="Layer_1" xmlns:cc="http://creativecommons.org/ns#" xmlns:dc="http://purl.org/dc/elements/1.1/" xmlns:rdf="http://www.w3.org/1999/02/22-rdf-syntax-ns#" xmlns:inkscape="http://www.inkscape.org/namespaces/inkscape" xmlns:sodipodi="http://sodipodi.sourceforge.net/DTD/sodipodi-0.dtd" xmlns:svg="http://www.w3.org/2000/svg"
	 xmlns="http://www.w3.org/2000/svg" xmlns:xlink="http://www.w3.org/1999/xlink" x="0px" y="0px" viewBox="56 -56 512 512"
	 enable-background="new 56 -56 512 512" xml:space="preserve">
<g id="g3781" transform="translate(297.22034,0)">
	<path id="rect2987" fill="#CF2200" d="M-177.2-56h384c35.3,0,64,28.7,64,64v384c0,35.3-28.7,64-64,64h-384c-35.3,0-64-28.7-64-64V8
		C-241.2-27.3-212.6-56-177.2-56z"/>
	<path id="Yelp_3_" fill="#FFFFFF" d="M-88.2,10.8c21-16.5,61.4-21.2,78-18C6.5-4,15.1,5.3,15.2,16.6l1,144.4
		c0.1,11.3-5.8,21.8-13.1,23.2c-7.3,1.4-18.1-5.4-24-15L-96.7,45.3C-102.5,35.7-114.4,31.4-88.2,10.8L-88.2,10.8z M-113.3,285.3
		l76.3-27c10.6-3.8,20.1-14.3,21.2-23.4c1-9.1-6.7-19.9-17.2-24.1l-80.6-31.9c-10.5-4.1-22.6,5.7-25.8,21.8c0,0-1.9,56,0,67.6
		C-137.4,279.9-123.9,289.1-113.3,285.3L-113.3,285.3z M19.7,298.8c0.2-11.4-5.8-21.2-13.5-21.9c-7.7-0.7-19.8,5.8-27,14.5
		L-74,355.2c-7.2,8.7-3.6,29,6.9,32.9l55.6,19.3c10.6,3.9,29.2-7.5,29.5-18.9L19.7,298.8L19.7,298.8z M152,284l-66.7-19.2
		c-10.8-3.1-23.1-2.8-27.3,0.7c-4.2,3.5-3.1,14.5,2.3,24.4l42.1,77.1c5.4,9.9,27.2,8.2,33.2-1.4c0,0,25.4-37.4,30-51.5
		C170.4,300,162.8,287.1,152,284L152,284z M168.2,175.6c-3-9.8-23.9-38.5-35.2-48.3c-11.3-9.8-24.2-8.6-31.5,0l-43,51.2
		c-7.3,8.6-9.2,22.3-4.4,30.3C59.1,217,72,221.5,83,219l74.4-13.8C170.8,202,171.3,185.4,168.2,175.6L168.2,175.6z"/>
</g>
</svg>
