<?xml version="1.0" encoding="utf-8"?>
<!-- Generator: Adobe Illustrator 18.1.1, SVG Export Plug-In . SVG Version: 6.00 Build 0)  -->
<svg version="1.1" id="Layer_1" xmlns:sketch="http://www.bohemiancoding.com/sketch/ns"
	 xmlns="http://www.w3.org/2000/svg" xmlns:xlink="http://www.w3.org/1999/xlink" x="0px" y="0px" viewBox="-169 171 60 60"
	 enable-background="new -169 171 60 60" xml:space="preserve">
<title></title>
<g id="flat">
	<g id="yelp">
		<path fill="#CA4638" d="M-139,231c16.6,0,30-13.4,30-30s-13.4-30-30-30s-30,13.4-30,30S-155.6,231-139,231z"/>
		<path fill="#FFFFFF" d="M-135.5,204.9c-0.6,0.6-0.1,1.8-0.1,1.8l4.7,7.8c0,0,0.8,1,1.4,1c0.7,0,1.3-0.6,1.3-0.6l3.7-5.3
			c0,0,0.4-0.7,0.4-1.3c0-0.8-1.2-1.1-1.2-1.1l-8.8-2.8C-134.1,204.6-134.9,204.4-135.5,204.9L-135.5,204.9z M-136,201
			c0.4,0.8,1.7,0.5,1.7,0.5l8.8-2.6c0,0,1.2-0.5,1.4-1.1c0.2-0.6-0.2-1.4-0.2-1.4l-4.2-4.9c0,0-0.4-0.6-1.1-0.7
			c-0.8-0.1-1.3,0.9-1.3,0.9l-4.9,7.8C-135.9,199.5-136.4,200.3-136,201L-136,201z M-140.1,198c1-0.3,1.2-1.8,1.2-1.8l-0.1-12.5
			c0,0-0.2-1.5-0.8-2c-1.1-0.7-1.4-0.3-1.7-0.3l-7.3,2.7c0,0-0.7,0.2-1.1,0.8c-0.5,0.8,0.5,2.1,0.5,2.1l7.6,10.3
			C-141.8,197.4-141,198.2-140.1,198L-140.1,198z M-141.9,203c0-1-1.2-1.5-1.2-1.5l-7.8-3.9c0,0-1.2-0.5-1.7-0.1
			c-0.4,0.3-0.8,0.7-0.8,1.1l-0.5,6.3c0,0-0.1,1.1,0.2,1.6c0.4,0.7,1.7,0.2,1.7,0.2l9.1-2C-142.5,204.3-141.9,204.3-141.9,203
			L-141.9,203z M-139.6,206.4c-0.8-0.4-1.7,0.4-1.7,0.4l-6.1,6.7c0,0-0.8,1-0.6,1.7c0.2,0.6,0.5,0.9,0.9,1.1l6.1,1.9
			c0,0,0.7,0.2,1.3,0c0.8-0.2,0.7-1.5,0.7-1.5l0.1-9.1C-138.9,207.6-138.9,206.8-139.6,206.4L-139.6,206.4z"/>
	</g>
</g>
</svg>
